<svg width="156" height="113" viewBox="0 0 156 113" fill="none" xmlns="http://www.w3.org/2000/svg">
<path d="M98.702 57.3581C98.6649 57.0544 98.6371 56.7488 98.5889 56.447C98.5572 56.3132 98.5182 56.1814 98.4722 56.0521C98.3332 55.5358 98.2017 55.0176 98.0534 54.505C98.0236 54.403 98.0176 54.2952 98.036 54.1903C98.0543 54.0855 98.0965 53.9865 98.159 53.9014C99.1393 56.3084 99.6414 58.7477 99.4784 61.3217H99.5562C99.5966 60.8433 99.6121 60.363 99.6025 59.8828C99.5469 59.0438 99.4691 58.2029 99.3394 57.3733C99.1918 56.4522 98.9432 55.5512 98.5982 54.6873C98.4815 54.3911 98.3721 54.0931 98.2684 53.7932C98.1887 53.5654 98.2369 53.4781 98.4703 53.3623C98.4684 53.482 98.492 53.6007 98.5393 53.7102C98.5867 53.8197 98.6567 53.9173 98.7446 53.9963L98.4648 53.3699C98.4288 53.2814 98.4113 53.1862 98.4135 53.0904C98.4158 52.9945 98.4376 52.9003 98.4778 52.8137C99.0509 51.2014 99.621 49.5879 100.188 47.9731C101.026 45.5718 101.856 43.1667 102.693 40.7597C103.333 38.926 103.99 37.0941 104.626 35.2547C105.088 33.9411 105.549 32.6269 106.008 31.312C106.41 30.1667 106.811 29.0215 107.213 27.8762C107.25 27.7699 107.296 27.6674 107.387 27.4434C107.452 27.5724 107.481 27.6332 107.522 27.7072C108.048 28.5595 108.586 29.4062 109.101 30.2661C109.373 30.7236 109.618 31.1981 109.853 31.6784C110.387 32.7755 110.856 33.9045 111.258 35.0592C111.848 36.7658 112.305 38.5177 112.625 40.2984C112.775 41.109 112.838 41.9366 112.951 42.7548C113.146 44.3138 113.222 45.8857 113.181 47.4568C113.17 48.3755 113.118 49.2924 113.025 50.2074C112.873 51.8159 112.597 53.4097 112.201 54.9739C111.794 56.5413 111.273 58.075 110.641 59.562C109.912 61.2725 109.038 62.9139 108.028 64.4671C107.176 65.7866 106.236 67.0444 105.215 68.2314C104.487 69.078 103.733 69.9057 102.938 70.6745C101.811 71.7769 100.598 72.7831 99.3116 73.6832C98.6705 74.1236 98.033 74.5754 97.366 74.9683C96.1978 75.6815 94.9751 76.2967 93.7101 76.8078C93.3024 76.9653 92.9096 77.1646 92.4982 77.3051C91.6533 77.5918 90.799 77.8537 89.9467 78.1214C89.8475 78.1384 89.747 78.1454 89.6465 78.1423C89.7206 77.905 89.7781 77.7019 89.8485 77.5044C90.2339 76.411 90.6267 75.3176 91.0084 74.2223C91.0325 74.1236 91.0762 74.031 91.1368 73.9503C91.1973 73.8696 91.2735 73.8026 91.3605 73.7535C91.4457 73.7098 91.492 73.5902 91.5903 73.4611H91.3327C91.3327 72.9979 91.6199 72.7417 91.9664 72.5443C92.6964 72.0998 93.3876 71.5917 94.0325 71.0257C94.3605 70.7542 94.7607 70.5454 95.0127 70.2151C95.2647 69.8848 95.6594 69.7462 95.7279 69.3096C96.043 69.2223 96.0985 69.1559 96.3505 68.5503L95.7354 69.3096C95.324 69.6893 94.87 70.0139 94.4809 70.4239C94.0944 70.8036 93.6793 71.1514 93.2394 71.4642C92.8299 71.7774 92.4 72.0583 91.9757 72.3506C91.8898 72.4039 91.8013 72.4526 91.7107 72.4968C91.6811 72.064 91.8812 71.7033 92.3833 71.4831L92.6224 71.7147C92.639 71.3578 92.7113 71.0769 93.0152 70.9137C93.0745 70.8814 93.0967 70.7808 93.169 70.6555C92.854 70.7181 92.7391 71.0978 92.4056 70.9364C92.4723 71.2345 92.261 71.2648 92.0869 71.373C92.0609 70.9706 92.3778 70.7143 92.413 70.3461C92.4624 69.9768 92.58 69.6205 92.7595 69.2963C92.93 68.9679 92.9633 68.6054 93.1078 68.2732C93.2524 67.941 93.3765 67.5689 93.5025 67.2139C93.6285 66.859 93.7397 66.5382 93.8527 66.1965C93.9658 65.8548 94.0751 65.4941 94.1918 65.1448C94.3086 64.7955 94.4364 64.4463 94.5624 64.097C94.6884 63.7477 94.8126 63.4041 94.933 63.0567C95.0535 62.7093 95.1739 62.3601 95.3036 62.0127C95.4333 61.6653 95.5501 61.3141 95.6742 60.9648C95.7984 60.6156 95.9095 60.2625 96.0337 59.9132C96.1578 59.5639 96.295 59.1957 96.4228 58.835C96.5507 58.4743 96.6581 58.1345 96.7823 57.7871C96.9064 57.4398 97.038 57.0924 97.1659 56.745C97.2937 56.3976 97.4197 56.054 97.5364 55.7047C97.6532 55.3555 97.7681 55.0024 97.907 54.5981C97.9504 54.6686 97.9876 54.7429 98.0182 54.8202C98.2239 55.5965 98.424 56.3729 98.6316 57.1474C98.6584 57.2141 98.692 57.2777 98.7316 57.3373C98.6869 57.4139 98.67 57.5043 98.6839 57.5925C98.6978 57.6807 98.7416 57.761 98.8076 57.8194L98.702 57.3581ZM99.3079 62.5708C99.3901 62.4686 99.4469 62.3475 99.4734 62.2179C99.4998 62.0883 99.4952 61.954 99.4598 61.8267C99.4097 61.9332 99.3765 62.0473 99.3616 62.1645C99.3412 62.3012 99.3264 62.4379 99.3116 62.5803L99.2078 63.0169C99.3561 62.8157 99.3598 62.8157 99.3079 62.5708ZM94.6625 69.3039L93.9454 69.9949C94.1307 69.9759 94.366 69.9379 94.4142 69.8184C94.4883 69.638 94.7329 69.5393 94.6625 69.2982C94.694 69.3164 94.7287 69.3278 94.7646 69.3319C94.8005 69.336 94.8368 69.3326 94.8714 69.322C94.906 69.3113 94.9382 69.2937 94.9659 69.27C94.9937 69.2464 95.0165 69.2172 95.0331 69.1843C95.0813 69.0932 95.1461 68.9812 94.9812 68.892L94.6625 69.3039ZM99.0559 54.8258L98.9873 54.8467L99.2634 55.7275L99.3431 55.7009L99.0559 54.8258ZM98.1516 66.0389L98.5111 65.4694C98.2962 65.4618 98.1943 65.6232 98.1516 66.0389ZM93.8138 68.127L93.749 68.0757L93.4136 68.4307C93.6137 68.3966 93.7731 68.3225 93.8138 68.1251V68.127ZM93.6915 70.2569L93.308 70.5378L93.3561 70.6061C93.4469 70.4941 93.6656 70.5682 93.6915 70.255V70.2569ZM96.7656 68.0435L96.5525 68.3529C96.6637 68.2751 96.8175 68.2352 96.7656 68.0416V68.0435ZM95.6353 68.4136L95.7928 68.1004C95.576 68.1479 95.5501 68.239 95.6353 68.4117V68.4136ZM97.7588 66.6483L97.8162 66.6786L97.9385 66.43L97.8922 66.4053L97.7588 66.6483ZM95.2165 68.7724L95.4963 68.5598C95.3258 68.5275 95.2425 68.5275 95.2165 68.7705V68.7724ZM97.1696 67.7132L97.1158 67.6486L96.9305 67.8385L96.9824 67.8897L97.1696 67.7132ZM98.7816 60.7788L98.8613 60.7674L98.8206 60.5529H98.7668L98.7816 60.7788ZM98.8168 58.5882L98.7576 58.63L98.8354 58.7629L98.8891 58.7325L98.8168 58.5882ZM99.0429 63.9261L98.9984 63.8939L98.9021 64.0628L98.9373 64.0856L99.0429 63.9261ZM98.8576 64.4576L98.7965 64.4311L98.7205 64.6209L98.7816 64.6475L98.8576 64.4576Z" fill="white"/>
<path d="M78.5657 26.9687C78.0111 26.3802 77.4552 25.7924 76.8981 25.2052C76.3768 24.656 75.8524 24.1093 75.3249 23.5651C75.3039 23.5412 75.2777 23.5226 75.2484 23.5111C75.2191 23.4995 75.1875 23.4953 75.1563 23.4987L75.5065 23.9353L75.4657 23.9751C75.4109 23.9359 75.3583 23.8934 75.3082 23.848C74.3632 22.8988 73.4188 21.9497 72.475 21.0006C71.3978 19.916 70.3213 18.8308 69.2453 17.745C69.1137 17.6122 68.9618 17.5021 68.821 17.3844L67.7629 16.2454C67.6128 15.9929 67.6202 15.9702 67.8204 15.879C70.5424 14.6734 73.4256 13.8927 76.3737 13.5631C77.4521 13.4436 78.5268 13.3354 79.6108 13.3259C80.3854 13.3259 81.1618 13.2936 81.9363 13.3259C82.6553 13.3543 83.3724 13.4436 84.0913 13.5157C84.5861 13.565 85.0808 13.6068 85.5737 13.6865C86.7716 13.8835 87.9581 14.1478 89.1277 14.4781C90.5098 14.8682 91.8618 15.3625 93.1727 15.9569C94.0863 16.3669 94.9738 16.8415 95.8503 17.3312C96.6378 17.7697 97.3957 18.2652 98.1647 18.7397C98.2573 18.7967 98.3499 18.8726 98.4389 18.9466C98.1276 19.8958 97.8274 20.8449 97.5124 21.7751C96.5563 24.6769 95.5989 27.5781 94.6403 30.4786C94.014 32.3769 93.3747 34.2562 92.7484 36.1487C92.2055 37.785 91.6718 39.4251 91.1326 41.0614C91.1065 41.1603 91.0712 41.2563 91.027 41.3481C90.9603 41.4658 90.888 41.4145 90.8287 41.331L90.6953 41.1829C90.3043 40.8906 90.1265 40.4635 89.993 40.0098C89.5275 38.3621 89.1434 36.6914 88.8423 35.0041C88.6126 33.7854 88.4236 32.5572 88.2327 31.3309C88.0104 29.8901 87.8214 28.4437 87.5897 27.0048C87.3729 25.676 87.1209 24.3358 86.88 23.0013C86.862 22.8859 86.8033 22.7812 86.7151 22.7071C86.7726 23.0697 86.8374 23.4303 86.8875 23.7929C87.0246 24.8237 87.258 25.8373 87.3563 26.8776C87.4044 27.4015 87.4934 27.9311 87.5545 28.4588C87.5786 28.662 87.5879 28.867 87.5953 29.072C87.6194 29.7364 87.6583 30.4008 87.6564 31.0633C87.6546 31.7258 87.612 32.337 87.5842 32.9729C87.5749 33.1874 87.5434 33.4 87.5397 33.6145C87.5474 33.728 87.5654 33.8405 87.5934 33.9505C87.5415 34.0839 87.4969 34.2201 87.46 34.3587C87.3915 34.6301 87.3544 34.9111 87.2747 35.1806C87.2358 35.3211 87.1246 35.4407 87.0894 35.5811C87.0787 35.7138 87.0787 35.8471 87.0894 35.9798C87.0894 36.031 87.0301 36.0785 86.9727 36.1696C86.9284 36.0807 86.8888 35.9895 86.8541 35.8963C86.8402 35.8305 86.8115 35.769 86.7703 35.7166C86.7291 35.6642 86.6766 35.6224 86.6169 35.5944C86.452 35.509 86.3353 35.3344 86.1444 35.247C85.998 35.1806 85.9591 35.006 86.1444 34.8313H85.7979L85.9832 34.2903C85.902 34.2909 85.8212 34.3011 85.7423 34.3207C85.4736 34.4308 85.4255 34.4175 85.3365 34.1631C85.3193 34.104 85.3056 34.0437 85.2957 33.9828C85.1512 33.8518 84.8547 33.8347 84.9826 33.4987L85.1679 33.662C85.1772 33.5633 85.2031 33.4968 85.1864 33.4475C85.0567 33.0792 84.7825 33.3583 84.5601 33.307C84.499 33.1476 84.8047 32.9274 84.4971 32.7926L84.4045 33.0204H84.3359L84.2062 32.3996L83.9171 32.6502C83.856 32.5667 83.7948 32.4775 83.7318 32.394C83.6929 32.3465 83.6262 32.318 83.5947 32.2668C83.4507 32.0289 83.2762 31.8118 83.0759 31.6214C82.8702 31.4315 82.7442 31.1449 82.5589 30.9228C82.3736 30.7007 82.1883 30.5621 81.9937 30.3666L82.1068 30.1122L82.0327 30.0458L81.9437 30.2907C81.4768 29.8901 81.0821 29.5314 80.8857 28.9866C80.8436 28.8984 80.7699 28.8304 80.68 28.7967C80.3631 28.6828 80.3613 28.6904 80.3557 28.3355C80.0741 28.3241 79.9129 28.1096 79.7442 27.914C79.5756 27.7185 79.3848 27.4642 79.2032 27.2421C79.0475 27.0522 78.8659 26.9345 78.6121 27.0351C78.7696 26.8909 78.7121 26.7979 78.4935 26.6783L78.5657 26.9687ZM74.5522 22.8248C74.5837 22.9235 74.6004 23.0374 74.8246 22.9804L74.5466 22.8324C74.4798 22.7028 74.401 22.5801 74.3113 22.466C73.9111 22.0427 73.5016 21.6308 73.0939 21.217C72.9772 21.0993 72.8567 20.9854 72.7381 20.8696L72.6881 20.9265C73.286 21.5593 73.8845 22.187 74.4836 22.8096C74.4892 22.8248 74.5263 22.821 74.5504 22.8248H74.5522ZM70.1051 18.1551C70.4923 18.5575 70.8018 19.0359 71.2687 19.3548L70.1051 18.1551ZM86.6336 22.3312L86.7355 22.2933L86.5502 21.6744L86.4891 21.6915L86.6336 22.3312ZM71.8506 20.0078C71.6653 19.6756 71.6653 19.6756 71.4022 19.5712L71.8506 20.0078ZM77.5633 25.5678L77.4966 25.6171C77.5503 25.6817 77.6022 25.7481 77.6578 25.807C77.6578 25.807 77.693 25.7937 77.7245 25.7804L77.5633 25.5678ZM85.1512 32.84L85.2327 32.8173L85.1568 32.6502L85.103 32.673L85.1512 32.84Z" fill="white"/>
<path d="M67.7654 16.2475L68.8234 17.3864C69.5646 18.2198 70.3058 19.0702 71.0693 19.8884C71.5603 20.4123 72.1088 20.8755 72.6109 21.388C73.6208 22.4168 74.6177 23.459 75.6183 24.4954C76.4058 25.3136 77.2007 26.1242 77.979 26.9537C78.7572 27.7832 79.5559 28.6621 80.336 29.5297C81.4125 30.7237 82.4965 31.912 83.5509 33.125C84.6386 34.3778 85.7003 35.6535 86.7621 36.9215C87.3439 37.622 87.9165 38.3319 88.4687 39.0571C89.1061 39.8942 89.7658 40.7218 90.2364 41.671C90.3827 41.9926 90.4748 42.3372 90.5088 42.6903C90.501 42.8496 90.4626 43.0057 90.3958 43.1497C90.2295 43.7507 90.0297 44.3414 89.7973 44.9189C89.7398 44.6645 89.6768 44.4121 89.6249 44.1596C89.3631 42.87 88.8004 41.6644 87.985 40.6459C87.0772 39.4694 85.9143 38.5257 84.5885 37.8896C83.89 37.5482 83.1434 37.3215 82.3761 37.2176C81.8862 37.1342 81.3904 37.0923 80.8937 37.0923C79.3051 37.1314 77.7531 37.589 76.3873 38.4211C75.6216 38.9011 74.9265 39.4905 74.3231 40.1713C73.4437 41.1317 72.7674 42.2678 72.3367 43.5085C72.3367 43.5294 72.307 43.5465 72.2477 43.6148C71.7641 42.1816 71.2879 40.7807 70.8154 39.3779C70.3429 37.975 69.8704 36.5456 69.3942 35.1295C68.9179 33.7134 68.4399 32.3125 67.9655 30.904C67.4912 29.4955 67.0094 28.0718 66.5332 26.6538C66.057 25.2358 65.5807 23.8178 65.1082 22.3998C64.6357 20.9818 64.1632 19.5619 63.6777 18.104C64.2641 17.702 64.8722 17.3345 65.4992 17.003C66.6443 16.3405 67.0557 16.1602 67.3985 16.2152L67.4152 16.0083L67.7654 16.2475Z" fill="white"/>
<path d="M51.3607 32.7852C51.4385 33.3186 51.5015 33.8311 51.5923 34.3398C51.622 34.505 51.5441 34.672 51.6738 34.8467C51.7646 34.9682 51.7128 35.1941 51.7443 35.3687C51.7758 35.5433 51.8536 35.737 51.8721 35.9249C51.9787 36.728 52.1309 37.5241 52.3279 38.3091C52.5132 39.169 52.7356 40.0175 52.9468 40.8737C53.0768 41.2716 53.1802 41.6781 53.2563 42.0905C53.2933 42.4245 53.4583 42.6998 53.5194 43.0149C53.5806 43.33 53.7047 43.6262 53.7899 43.9318C53.8048 43.9811 53.8122 44.0324 53.8252 44.0817C53.9048 44.3779 53.84 44.7101 54.0753 44.972C54.2161 45.1296 54.1161 45.3669 54.2069 45.5738C54.4181 46.0578 54.4774 46.5988 54.659 47.0924C54.6869 47.1903 54.7216 47.2861 54.7628 47.379C55.0018 47.8308 55.0926 48.3282 55.2408 48.8122C55.3962 49.2371 55.5743 49.6528 55.7745 50.0575C55.8986 50.3498 56.0117 50.6459 56.134 50.9383C56.4786 51.7602 56.8158 52.586 57.1772 53.406C57.4977 54.1293 57.8405 54.843 58.187 55.553C58.6633 56.5268 59.158 57.4911 59.6361 58.463C60.2494 59.7102 60.8627 60.9554 61.4557 62.2121C61.9986 63.3624 62.5063 64.5318 63.0455 65.684C63.3846 66.4091 63.7571 67.1172 64.1092 67.8347C64.7997 69.242 65.4884 70.6499 66.1752 72.0584C66.6514 73.0303 67.1313 74.0003 67.6002 74.9741C67.8151 75.4221 68.0115 75.8796 68.2135 76.3333C68.2399 76.4177 68.2603 76.504 68.2746 76.5914C67.9985 76.4756 67.7725 76.3902 67.5538 76.2915C66.3174 75.7111 65.1196 75.0478 63.9683 74.3059C62.7547 73.5295 61.5922 72.6722 60.4884 71.7395C59.2275 70.6759 58.0348 69.5301 56.9178 68.3093C55.9362 67.2393 55.0489 66.0826 54.2662 64.8526C53.6998 64.0123 53.1807 63.1396 52.7115 62.2386C52.2742 61.3522 51.8091 60.4809 51.4144 59.5811C51.1105 58.8863 50.8863 58.1536 50.638 57.4341C50.4231 56.8115 50.197 56.1908 50.0191 55.5549C49.7894 54.7348 49.5615 53.911 49.4077 53.0757C49.1964 51.9368 49.0371 50.775 48.8907 49.619C48.7962 48.8881 48.7332 48.1478 48.7054 47.4113C48.6628 46.2477 48.6072 45.0802 48.6554 43.9185C48.7001 42.5796 48.8494 41.2466 49.1019 39.9321C49.4287 38.1907 49.8847 36.4773 50.4657 34.8068C50.651 34.2924 50.8585 33.7874 51.0679 33.2882C51.155 33.1143 51.2528 32.9463 51.3607 32.7852ZM51.3885 34.0399H51.3514L51.3681 34.2525H51.4052L51.3885 34.0399Z" fill="white"/>
<path d="M55.9601 45.192L56.1917 46.0614L56.1213 46.0899C56.0842 46.0216 56.0416 45.9532 56.0082 45.883C55.9475 45.7597 55.8937 45.6329 55.847 45.5033C55.7989 45.361 55.7673 45.2129 55.7321 45.0667C55.7155 44.9946 55.7321 44.8674 55.6969 44.8522C55.3134 44.6871 55.3263 44.2827 55.2541 43.9847C54.8835 42.4452 54.5018 40.9019 54.222 39.3416C53.9236 37.6825 53.7346 36.0025 53.4975 34.332C53.4586 33.9774 53.3853 33.6277 53.2788 33.288C53.3177 33.6885 53.3492 34.091 53.3993 34.4896C53.4845 35.1616 53.5846 35.8336 53.6735 36.5037C53.7526 37.0478 53.8372 37.5907 53.9273 38.1324C54.0571 38.9126 54.1979 39.6927 54.3257 40.4729C54.3869 40.8526 54.4314 41.2322 54.4832 41.6119H54.4944C54.3628 41.5815 54.3591 41.6897 54.3332 41.7713V41.76L54.1479 41.1107L54.2702 41.1981C54.2713 40.7388 54.1732 40.2851 53.9829 39.8693L54.0923 40.5337L54.0404 40.5546C54.0107 40.5128 53.9663 40.4748 53.9551 40.4274C53.6012 38.9752 53.2714 37.5173 53.0564 36.0348C52.9731 35.4653 52.8434 34.8958 52.7248 34.3263C52.5969 33.7037 52.5154 33.0716 52.3931 32.4471C52.634 34.6452 53.0676 36.8131 53.3789 39.0056C53.3437 38.8746 53.3085 38.7436 53.2751 38.6126C53.2418 38.4816 53.201 38.3431 53.1732 38.2045C52.949 37.0655 52.7155 35.9266 52.5061 34.7876C52.382 34.1118 52.3004 33.4266 52.1893 32.7489C52.1411 32.449 52.0688 32.1528 52.004 31.8548V31.8662C51.9817 31.6004 51.9243 31.3271 52.1615 31.0461L52.3338 32.0864C52.4246 31.589 52.13 31.0974 52.3671 30.5678C52.5988 30.7956 52.5636 31.0404 52.5339 31.2644C52.5116 31.3482 52.5126 31.4367 52.5368 31.5199C52.5611 31.6031 52.6076 31.6777 52.671 31.7352C52.6808 31.5411 52.6808 31.3466 52.671 31.1524C52.6507 30.9626 52.5524 30.7728 52.571 30.5981C52.5905 30.3593 52.66 30.1275 52.7748 29.9186C53.238 29.1365 53.7272 28.3696 54.209 27.5989C54.2553 27.5249 54.3091 27.4546 54.3665 27.3711C54.5814 27.4318 54.6 27.6312 54.6537 27.7868C54.9798 28.7359 55.2948 29.6984 55.6191 30.6532C55.9008 31.4859 56.1855 32.3167 56.4733 33.1456C56.8439 34.2061 57.2145 35.266 57.5851 36.3252C57.8334 37.0314 58.091 37.7356 58.3411 38.4399C58.5913 39.1441 58.86 39.9034 59.1157 40.6362C59.3714 41.3689 59.616 42.0808 59.8569 42.804C60.1311 43.5994 60.4016 44.3947 60.6796 45.1882C61.0298 46.1848 61.3893 47.1776 61.7395 48.1761C62.0008 48.9202 62.2472 49.6719 62.5048 50.4179C62.7123 51.0197 62.9291 51.6176 63.1403 52.2175C63.6369 53.6355 64.1372 55.0516 64.6227 56.4696C65.0545 57.7225 65.4714 58.9791 65.9031 60.232C66.2873 61.3507 66.6764 62.4669 67.0705 63.5805C67.3077 64.2506 67.5671 64.9093 67.8117 65.5851C68.16 66.5817 68.4973 67.5821 68.8382 68.5825C69.0828 69.3057 69.3163 70.0327 69.5683 70.7522C69.9389 71.8209 70.328 72.8839 70.7005 73.9508C70.9098 74.5487 71.097 75.1543 71.3045 75.7541C71.4435 76.1565 71.6047 76.5514 71.7492 76.9519C71.792 77.0434 71.8093 77.1452 71.7993 77.2461C71.7799 77.3494 71.7868 77.456 71.8192 77.5557C71.8517 77.6554 71.9086 77.7449 71.9846 77.8156C71.8206 77.8417 71.6538 77.8417 71.4898 77.8156C71.0006 77.6638 70.5207 77.4815 70.0427 77.2993C69.9526 77.2643 69.8781 77.1968 69.8333 77.1095C69.4516 76.1793 69.0921 75.2416 68.7048 74.3095C68.5195 73.8482 68.3231 73.3927 68.1285 72.9352C67.2206 70.7958 66.2014 68.7115 65.1249 66.6576C64.4115 65.2947 63.6425 63.9583 62.9106 62.6086C62.7772 62.3637 62.6734 62.0999 62.5529 61.8493C62.4547 61.6424 62.3528 61.4393 62.2509 61.2343C62.2176 61.1659 62.1508 61.1033 62.1471 61.0349C62.1526 60.9434 62.1288 60.8526 62.0793 60.7762C62.0298 60.6998 61.9573 60.642 61.8729 60.6116C61.7043 60.5281 61.6135 60.2491 61.5227 60.0422C61.2336 59.3759 60.9483 58.7134 60.6833 58.03C60.4696 57.4833 60.2732 56.9303 60.094 56.3709C59.8958 55.7445 59.7494 55.0991 59.5382 54.4726C59.4457 54.2101 59.3835 53.9375 59.3529 53.6602C59.3471 53.5932 59.3269 53.5283 59.2936 53.4704C58.923 52.8496 58.8433 52.1302 58.658 51.4487C58.4301 50.6135 58.2392 49.7668 58.0261 48.9259C57.9712 48.7184 57.8967 48.5169 57.8038 48.3242C58.1029 49.9611 58.4839 51.5811 58.9452 53.178L58.847 53.2046C58.5913 52.3371 58.3263 51.4734 58.0854 50.6021C57.8445 49.7308 57.6036 48.8766 57.4146 48.0033C57.1645 46.8549 56.9681 45.6932 56.7402 44.539C56.6906 44.3601 56.6287 44.185 56.5549 44.0151C56.5833 43.9445 56.5996 43.8693 56.603 43.793C56.5289 43.2235 56.4455 42.673 56.3659 42.113C56.3281 42.3373 56.3281 42.5665 56.3659 42.7907C56.4233 43.1988 56.4919 43.6051 56.5512 44.0113C56.5827 45.3401 56.9625 46.6119 57.2182 47.9027C57.372 48.6772 57.5499 49.446 57.6574 50.2395C57.5518 49.9282 57.4258 49.6226 57.3424 49.3056C56.981 47.9369 56.5864 46.574 56.2936 45.1882C55.9601 43.6146 55.7266 42.02 55.4394 40.4426C55.406 40.2527 55.4635 40.0268 55.2671 39.8864C55.3634 39.5219 55.2671 39.1764 55.1633 38.8309L55.2671 39.8845C55.3263 40.285 55.3838 40.6874 55.4523 41.088C55.6247 42.1947 55.8063 43.2994 55.973 44.4061C56.0119 44.6605 56.1454 44.9263 55.9582 45.1768C56.0323 44.8712 55.8971 44.5979 55.8359 44.315C55.6154 43.3032 55.3727 42.2972 55.1633 41.2778C54.9984 40.4767 54.8575 39.67 54.7315 38.8613C54.5611 37.7736 54.411 36.684 54.2572 35.5944C54.1942 35.1559 54.1442 34.7136 54.0867 34.2656C54.0693 34.2859 54.0563 34.3098 54.0487 34.3357C54.041 34.3615 54.0388 34.3888 54.0422 34.4156C54.1275 35.2679 54.1979 36.124 54.3035 36.9744C54.4239 37.9387 54.5574 38.9031 54.7204 39.8598C54.8242 40.4729 54.8131 41.1107 55.091 41.6878C55.1058 41.7182 55.1188 41.7751 55.104 41.7922C54.9595 41.9517 55.0725 42.1054 55.104 42.2592C55.1955 42.5624 55.2685 42.8712 55.3226 43.1837C55.3201 43.2919 55.3434 43.3992 55.3905 43.4961C55.4377 43.5931 55.5072 43.6767 55.5932 43.7398C55.5283 43.793 55.4412 43.8386 55.4468 43.867C55.4894 44.1157 55.4746 44.446 55.6321 44.5865C55.7801 44.7636 55.8917 44.9696 55.9601 45.192ZM53.2751 35.7349C53.3103 36.0727 53.2269 36.4315 53.4363 36.7409L53.2751 35.7349ZM53.7569 38.8879H53.8125L53.6438 38.0014H53.6105L53.7569 38.8879ZM61.2966 58.7741C61.2596 58.5558 61.2966 58.2995 61.065 58.1553L61.2966 58.7741ZM53.8514 31.4713H53.8236L53.8384 31.7542H53.8514V31.4713ZM53.264 32.5363H53.2214L53.2362 32.8438H53.2899L53.264 32.5363ZM53.9737 33.8423H54.0107V33.5025H53.957L53.9737 33.8423ZM53.5271 37.6179L53.5734 37.599L53.5327 37.3294L53.4771 37.3389L53.5271 37.6179ZM60.7278 56.9973L60.7759 56.9746L60.6851 56.7847L60.6425 56.8037L60.7278 56.9973ZM60.9927 57.694L60.9427 57.7282L61.0076 57.88L61.0576 57.8554L60.9927 57.694ZM57.7056 48.0489L57.7723 48.0622L57.8112 47.8724L57.7352 47.8572L57.7056 48.0489ZM53.1806 35.1179H53.1102L53.151 35.3077H53.1917L53.1806 35.1179ZM52.9175 33.6809H52.9638L52.9508 33.4417H52.9156L52.9175 33.6809ZM53.907 32.9387H53.9348V32.6597H53.907V32.9387ZM52.9953 34.2181H53.0435L53.0175 34.0701H52.9786L52.9953 34.2181Z" fill="white"/>
<path d="M75.7383 54.1004C77.5764 55.3514 79.5739 55.7538 81.7123 55.5165C83.8506 55.2793 85.698 54.4156 87.2026 52.7944C86.2761 55.8317 85.2385 58.8062 84.2545 61.8036L81.3231 70.7255C81.0563 70.2414 80.9878 69.6662 80.7673 69.148C80.5467 68.6298 80.4226 68.0413 80.2114 67.4965C80.0001 66.9517 79.8278 66.3576 79.6388 65.7881C79.4498 65.2186 79.2682 64.6738 79.0829 64.1176C78.8976 63.5614 78.7012 63.0071 78.5122 62.4528C78.3232 61.8985 78.1416 61.3404 77.9563 60.7842C77.771 60.228 77.6024 59.6662 77.4171 59.11C77.2318 58.5538 77.0298 57.9805 76.8389 57.4148C76.6481 56.8491 76.4684 56.3005 76.2831 55.7424L75.7383 54.1004ZM81.0267 67.3522H81.0952C81.0952 67.3124 81.0952 67.2725 81.0804 67.2345C81.0706 67.2326 81.0605 67.2326 81.0508 67.2345C81.0415 67.2592 81.0359 67.301 81.0285 67.3446L81.0267 67.3522Z" fill="white"/>
<path d="M42.402 83.144C43.9863 83.144 45.2407 83.6528 46.2821 84.7063C47.0335 85.4316 47.5633 86.3647 47.8071 87.3924C47.9745 88.1038 48.0097 88.8411 47.9109 89.5659C47.5736 91.8932 46.3025 93.4706 44.1197 94.1578C42.3575 94.714 40.6565 94.4254 39.2 93.2086C38.643 92.7679 38.1763 92.2189 37.8266 91.5932C37.4768 90.9675 37.2509 90.2773 37.1618 89.5621C37.0465 88.7601 37.1028 87.942 37.3267 87.1645C37.5507 86.3871 37.937 85.6688 38.4588 85.0594C39.2385 84.1268 40.3028 83.4913 41.4792 83.256C41.7846 83.2016 42.0926 83.1642 42.402 83.144ZM39.1259 89.0685C39.0944 90.3347 39.9245 91.5761 41.2716 92.1513C42.0216 92.4817 42.8635 92.5203 43.6393 92.2599C44.4151 91.9995 45.0715 91.4581 45.4853 90.7371C45.9344 89.9853 46.1098 89.0952 45.9806 88.2238C45.8515 87.3524 45.426 86.5557 44.7793 85.9744C44.2146 85.4799 43.509 85.1856 42.7677 85.1353C42.0265 85.085 41.2892 85.2814 40.6657 85.6953C39.5966 86.4432 39.1296 87.5101 39.1259 89.0761V89.0685Z" fill="white"/>
<path d="M107.993 94.1541H107.549C107.098 94.1541 106.648 94.1371 106.198 94.1541C106.088 94.1683 105.976 94.1447 105.88 94.087C105.784 94.0293 105.71 93.9408 105.668 93.8352C104.99 92.5216 104.293 91.2194 103.602 89.9134C103.544 89.8052 103.476 89.7046 103.391 89.5641C103.277 89.7139 103.221 89.9009 103.233 90.09C103.246 91.396 103.25 92.702 103.255 94.008C103.255 94.0308 103.237 94.0535 103.228 94.0763C102.964 94.1598 101.862 94.1845 101.293 94.1124C101.293 94.0004 101.269 93.877 101.269 93.7555C101.269 91.768 101.269 89.7824 101.287 87.7949C101.287 87.1704 101.237 86.5516 101.258 85.9271C101.278 85.3025 101.258 84.6704 101.258 84.0421C101.258 83.8522 101.258 83.6624 101.258 83.4441C101.384 83.4308 101.478 83.4137 101.575 83.4119C102.375 83.4119 103.177 83.3967 103.984 83.4213C104.445 83.4404 104.905 83.4912 105.36 83.5732C106.504 83.763 107.291 84.7919 107.439 85.8701C107.503 86.3399 107.496 86.8169 107.417 87.2843C107.267 88.1613 106.733 88.7745 105.963 89.1826C105.831 89.2509 105.698 89.3117 105.529 89.3933L107.993 94.1541ZM103.3 87.588C103.835 87.588 104.334 87.6336 104.825 87.5064C104.948 87.4849 105.066 87.4354 105.168 87.3615C105.271 87.2876 105.356 87.1912 105.418 87.0793C105.735 86.4301 105.471 85.6404 104.734 85.4791C104.263 85.3766 103.795 85.4221 103.298 85.4183L103.3 87.588Z" fill="white"/>
<path d="M120.642 94.1539V83.4287H126.275C126.358 84.0808 126.358 84.7413 126.275 85.3934H122.645C122.645 85.7237 122.635 86.0255 122.634 86.3274C122.632 86.6292 122.634 86.9405 122.634 87.3012C123.866 87.3202 125.074 87.3012 126.271 87.3126C126.352 87.6125 126.369 88.7439 126.301 89.2982L125.126 89.3095H122.667V92.1323H126.317V94.1368C124.424 94.1539 122.545 94.1425 120.642 94.1539Z" fill="white"/>
<path d="M97.5089 92.1607V94.1179H91.8778C91.7888 93.8027 91.7499 84.0836 91.837 83.4211C93.7085 83.4078 95.5874 83.4078 97.496 83.4306V85.3763H93.8141V87.3202H97.5089V89.2963H93.803V92.1171C95.0352 92.1987 96.2656 92.1114 97.5089 92.1607Z" fill="white"/>
<path d="M79.0752 83.4403H81.0949C81.9881 85.9081 82.8145 88.4233 83.6891 90.9176H83.778L86.3907 83.4365H88.3919C88.3549 83.5884 88.3327 83.7194 88.29 83.8409C87.8861 84.9988 87.4803 86.1561 87.0726 87.3128C86.4871 88.9757 85.9009 90.6392 85.3142 92.3033C85.1289 92.8102 84.9639 93.3189 84.7842 93.8219C84.6749 94.1314 84.6712 94.1351 84.3562 94.137C83.8318 94.137 83.3092 94.137 82.7626 94.137C81.5304 90.574 80.3167 87.028 79.0752 83.4403Z" fill="white"/>
<path d="M116.824 84.8808L115.416 86.1659C115.207 85.9761 115.027 85.8109 114.829 85.661C114.624 85.495 114.405 85.3488 114.175 85.2243C114.043 85.1624 113.899 85.1303 113.754 85.1303C113.609 85.1303 113.465 85.1624 113.333 85.2243C113.224 85.26 113.125 85.3245 113.047 85.4113C112.969 85.4982 112.914 85.6044 112.888 85.7195C112.863 85.8345 112.867 85.9545 112.9 86.0674C112.934 86.1803 112.996 86.2823 113.08 86.3633C113.297 86.6115 113.529 86.8449 113.776 87.0619C114.36 87.5858 114.957 88.0945 115.542 88.6147C115.959 88.9658 116.316 89.3853 116.598 89.8561C116.84 90.279 116.978 90.7561 116.998 91.2458C117.019 91.7356 116.922 92.223 116.717 92.6657C116.511 93.1083 116.203 93.4926 115.819 93.7851C115.435 94.0776 114.987 94.2694 114.514 94.3436C113.672 94.5174 112.797 94.383 112.042 93.964C111.301 93.5293 110.811 92.8592 110.413 92.0391L112.07 90.9951C112.146 91.1071 112.203 91.2001 112.272 91.2855C112.464 91.5548 112.677 91.8087 112.907 92.0448C113.103 92.2386 113.352 92.3658 113.621 92.4093C113.89 92.4528 114.165 92.4104 114.41 92.2878C114.544 92.2381 114.664 92.1576 114.763 92.0524C114.861 91.9472 114.935 91.8202 114.978 91.6813C115.02 91.5423 115.031 91.3951 115.01 91.2511C114.988 91.1071 114.934 90.9701 114.853 90.8508C114.726 90.6452 114.571 90.4592 114.393 90.2984C113.837 89.7878 113.241 89.3113 112.692 88.7798C112.243 88.3745 111.83 87.9299 111.456 87.451C110.858 86.6386 110.715 85.7141 111.147 84.7707C111.334 84.3544 111.62 83.9927 111.979 83.7185C112.337 83.4443 112.757 83.2663 113.2 83.2008C113.707 83.101 114.23 83.1288 114.724 83.2819C115.218 83.435 115.669 83.7088 116.037 84.0797C116.294 84.3151 116.539 84.5865 116.824 84.8808Z" fill="white"/>
<path d="M53.5672 89.6644V94.0855H51.5938V83.4248C51.9903 83.4248 52.3739 83.4248 52.7574 83.4248C53.556 83.4419 54.3565 83.4457 55.1533 83.4969C55.8098 83.5167 56.4368 83.7809 56.917 84.24C57.3972 84.6991 57.6977 85.3216 57.7623 85.9913C57.8655 86.6149 57.7875 87.2559 57.5381 87.8345C57.2435 88.4915 56.7123 89.0063 56.0557 89.2715C55.3923 89.5619 54.6882 89.5467 53.9896 89.5714C53.8896 89.5714 53.7895 89.5714 53.6913 89.5866C53.6617 89.598 53.6431 89.6169 53.5672 89.6644ZM53.5968 85.4047V87.5725C54.1206 87.6538 54.6544 87.6357 55.1718 87.5194C55.624 87.4188 55.8926 86.9973 55.8871 86.481C55.8875 86.2548 55.8151 86.0348 55.6811 85.855C55.5471 85.6751 55.359 85.5456 55.1459 85.4863C54.6355 85.3871 54.1143 85.3603 53.5968 85.4066V85.4047Z" fill="white"/>
<path d="M71.3896 86.8037L73.6392 90.3193C73.7818 89.56 73.7355 88.8007 73.7355 88.0414C73.7355 87.2821 73.7355 86.5057 73.7355 85.7388C73.7355 84.9719 73.7355 84.2202 73.7355 83.4248H75.6997C75.7108 85.213 75.7145 86.9822 75.6997 88.7532C75.6848 90.5243 75.6997 92.303 75.6997 94.1234H74.8102C74.7104 94.1142 74.6099 94.1142 74.5101 94.1234C74.0468 94.2108 73.7355 94.0171 73.4965 93.6185C73.2371 93.1819 72.9146 92.7814 72.6812 92.3315C72.5245 91.9973 72.4081 91.6448 72.3347 91.2817C72.0048 89.9302 71.6898 88.5748 71.373 87.2213C71.3433 87.0923 71.3341 86.9575 71.3174 86.8246L71.3896 86.8037Z" fill="white"/>
<path d="M61.3855 83.4326H63.2867C63.3886 83.8009 63.4108 92.5918 63.3163 94.099C62.6899 94.1369 62.0619 94.1369 61.4355 94.099C61.3169 93.389 61.4059 92.6867 61.3818 91.99C61.3577 91.2933 61.3818 90.5568 61.3818 89.8412C61.3818 89.1255 61.3818 88.4327 61.3818 87.7284C61.3818 87.0241 61.3818 86.2933 61.3818 85.5758C61.3818 84.8582 61.3837 84.1786 61.3855 83.4326Z" fill="white"/>
<path d="M69.2752 94.1064H67.4111C67.3738 93.8681 67.3485 93.6279 67.3352 93.3869C67.3259 92.3125 67.3352 91.2362 67.3352 90.1599C67.3352 89.2664 67.3352 88.3724 67.3352 87.4776C67.3352 87.3789 67.3518 87.2878 67.3648 87.1265C67.4453 87.1745 67.521 87.2305 67.5909 87.2935C68.1134 87.8972 68.636 88.4989 69.1455 89.112C69.2329 89.2194 69.2848 89.3523 69.2938 89.4917C69.3123 89.8979 69.2938 90.3042 69.2938 90.7104C69.2938 91.7449 69.3179 92.7776 69.3253 93.8122C69.3165 93.9115 69.2997 94.0099 69.2752 94.1064Z" fill="white"/>
<path d="M67.835 86.0863L67.4737 86.0256C67.4626 85.9706 67.4367 85.925 67.4496 85.9003C67.512 85.7352 67.5185 85.5534 67.4681 85.384C67.4311 85.0594 67.4478 84.7272 67.4348 84.3988C67.4237 84.1463 67.3959 83.8957 67.3848 83.6395C67.3933 83.5742 67.4102 83.5104 67.4348 83.4497C67.9907 83.4497 68.5355 83.4364 69.0784 83.4591C69.2078 83.4889 69.3212 83.5684 69.3952 83.6812C69.5676 83.9147 69.7028 84.1748 69.8659 84.414C69.9873 84.5935 70.0406 84.8121 70.016 85.029C69.9993 85.2416 69.9975 85.4561 69.9641 85.6668C69.95 85.7262 69.9477 85.7879 69.9572 85.8482C69.9668 85.9085 69.988 85.9662 70.0197 86.018C70.0549 86.075 70.1216 86.1813 69.9604 86.2534C69.8807 86.2895 69.864 86.4945 69.8363 86.633C69.7828 86.9335 69.7009 87.2278 69.5917 87.5119L69.4175 87.1437L69.3119 87.2025L69.2452 87.7929C68.8449 87.8346 68.8523 87.4265 68.6355 87.157L68.6022 87.4797L68.3094 87.2158L68.6448 86.9709H68.1704L68.2538 86.4299C68.1908 86.4451 68.1093 86.4413 68.0685 86.4812C68.0441 86.5084 68.0139 86.5295 67.9802 86.5427C67.9466 86.5559 67.9104 86.561 67.8745 86.5575C67.8386 86.554 67.8039 86.5421 67.7733 86.5226C67.7427 86.5031 67.7169 86.4766 67.6979 86.4451C67.5867 86.3046 67.6331 86.1813 67.835 86.0863Z" fill="white"/>
<path d="M52.0094 31.855C52.1224 32.7301 52.2354 33.6052 52.3522 34.4803C52.4059 34.8846 52.4671 35.2889 52.5152 35.6932C52.191 34.7137 51.7592 31.9821 51.876 31.6006L52.0168 31.8663L52.0094 31.855Z" fill="white"/>
<path d="M56.2577 46.4146L56.9248 49.1557L56.8859 49.1651C56.8562 49.0854 56.8192 49.0057 56.7969 48.9241C56.6339 48.3546 56.4727 47.7718 56.3078 47.1966C56.2808 47.1158 56.2467 47.0377 56.2059 46.9631C56.16 46.8769 56.1405 46.7785 56.1497 46.6807C56.1589 46.5829 56.1966 46.4902 56.2577 46.4146Z" fill="white"/>
<path d="M52.8729 38.1686C52.8136 38.0945 52.7661 38.0112 52.7321 37.9219C52.5468 36.986 52.3615 36.0502 52.1762 35.1124C52.167 35.0612 52.1769 35.0084 52.204 34.9644L52.8766 38.1724L52.8729 38.1686Z" fill="white"/>
<path d="M51.6976 32.0806L51.8566 33.0942L51.7734 33.1094C51.7161 32.7715 51.5774 32.4488 51.6014 32.0977L51.6976 32.0806Z" fill="white"/>
<path d="M54.9567 44.0625L54.6904 43.2462L54.7792 43.2178L55.003 44.0435L54.9567 44.0625Z" fill="white"/>
<path d="M70.6191 88.6484L70.8651 88.459L70.9058 88.8093L70.83 88.8434L70.6191 88.6484Z" fill="white"/>
<path d="M70.4439 88.2683C70.1036 88.0467 70.1036 88.0467 70.2257 87.8384L70.4439 88.2683Z" fill="white"/>
<path d="M52.8694 38.1742L53.0543 38.9772C52.9396 38.7209 52.7787 38.4722 52.8694 38.1704V38.1742Z" fill="white"/>
<path d="M76.0223 24.5554L75.6221 24.1443L75.6665 24.0986L76.0631 24.5154L76.0223 24.5554Z" fill="white"/>
<path d="M90.7082 41.1792L90.8414 41.3273L90.8895 41.5019C90.773 41.4165 90.5899 41.3691 90.7082 41.1792Z" fill="white"/>
<path d="M78.566 26.968L78.4883 26.6802C78.7065 26.7995 78.7638 26.8923 78.6066 27.0362L78.566 26.968Z" fill="white"/>
<path d="M54.6308 42.8247L54.5254 42.6144L54.5827 42.5762L54.7214 42.7674L54.6308 42.8247Z" fill="white"/>
<path d="M54.4775 41.9892V42.1786H54.4034L54.333 41.7544V41.7658L54.4924 42.0025L54.4775 41.9892Z" fill="white"/>
<path d="M70.6074 87.6011C70.7686 87.7814 70.7 87.8498 70.5703 87.9466L70.6074 87.6011Z" fill="white"/>
<path d="M54.4775 41.6102L54.6443 42.0041L54.5887 42.0477L54.4794 41.989V42.0022V41.6064L54.4775 41.6102Z" fill="white"/>
<path d="M54.2719 42.4049L54.1885 42.1285L54.2292 42.1133L54.3256 42.3744L54.2719 42.4049Z" fill="white"/>
<path d="M54.1549 41.105L54.0684 40.8013C54.2084 40.881 54.1955 40.9911 54.1513 41.1126L54.1549 41.105Z" fill="white"/>
<path d="M94.6537 69.2964C94.726 69.5394 94.4814 69.64 94.4073 69.8184C94.3591 69.938 94.1201 69.9741 93.9385 69.995L94.663 69.304L94.6537 69.2964Z" fill="white"/>
<path d="M95.7301 69.3189L96.3453 68.5596C96.097 69.1575 96.0358 69.224 95.7227 69.3189H95.7301Z" fill="white"/>
<path d="M99.0548 54.8257L99.3414 55.7027L99.2619 55.7293L98.9863 54.8485L99.0548 54.8257Z" fill="white"/>
<path d="M98.1523 66.0387C98.1967 65.623 98.2966 65.4692 98.5111 65.4692L98.1523 66.0387Z" fill="white"/>
<path d="M94.6631 69.303L94.9818 68.8921C95.1467 68.9811 95.0837 69.0928 95.0337 69.1837C95.0171 69.2165 94.9943 69.2456 94.9665 69.2692C94.9388 69.2928 94.9066 69.3104 94.872 69.321C94.8374 69.3316 94.8011 69.335 94.7652 69.3309C94.7293 69.3269 94.6946 69.3154 94.6631 69.2973V69.303Z" fill="white"/>
<path d="M99.3192 62.5765C99.3359 62.4398 99.3489 62.3012 99.3711 62.1646C99.386 62.0473 99.4192 61.9332 99.4693 61.8267C99.5047 61.954 99.5093 62.0883 99.4828 62.2179C99.4564 62.3475 99.3996 62.4686 99.3174 62.5708L99.3192 62.5765Z" fill="white"/>
<path d="M93.8143 68.1249C93.7735 68.3142 93.6142 68.3957 93.4141 68.4279L93.7495 68.0737L93.8143 68.1249Z" fill="white"/>
<path d="M93.6922 70.2549C93.6644 70.5674 93.4476 70.4935 93.3568 70.6033L93.3086 70.5352L93.6922 70.2549Z" fill="white"/>
<path d="M98.4668 53.3601L98.746 53.9866C98.6584 53.9076 98.5885 53.8099 98.5412 53.7005C98.4939 53.591 98.4704 53.4723 98.4723 53.3525L98.4668 53.3601Z" fill="white"/>
<path d="M96.7654 68.0415C96.8172 68.2321 96.6637 68.276 96.5527 68.3522L96.7654 68.0415Z" fill="white"/>
<path d="M98.7021 57.3578L98.7818 57.8374C98.7158 57.7789 98.672 57.6983 98.6581 57.6099C98.6442 57.5215 98.6611 57.4309 98.7058 57.354L98.7021 57.3578Z" fill="white"/>
<path d="M95.6358 68.4114C95.5489 68.2386 95.5766 68.1532 95.793 68.0981L95.6358 68.4114Z" fill="white"/>
<path d="M97.7588 66.6467L97.8903 66.4033L97.9367 66.428L97.8144 66.6771L97.7588 66.6467Z" fill="white"/>
<path d="M99.3081 62.5708C99.3599 62.8151 99.3562 62.8151 99.208 63.0158C99.2432 62.87 99.2766 62.7242 99.3099 62.5784L99.3081 62.5708Z" fill="white"/>
<path d="M95.2168 68.7733C95.2334 68.5347 95.3241 68.5328 95.4961 68.5578L95.2168 68.7733Z" fill="white"/>
<path d="M97.1693 67.7118L96.9844 67.903L96.9326 67.8513L97.1176 67.6602L97.1693 67.7118Z" fill="white"/>
<path d="M98.7821 60.7789L98.7637 60.5547H98.8171L98.8576 60.7712L98.7821 60.7789Z" fill="white"/>
<path d="M98.8171 58.5859L98.8894 58.7318L98.8356 58.7626L98.7578 58.6282L98.8171 58.5859Z" fill="white"/>
<path d="M99.0451 63.924L98.9395 64.0841L98.9043 64.0612L99.0007 63.8916L99.0451 63.924Z" fill="white"/>
<path d="M98.8539 64.456L98.7779 64.6477L98.7168 64.6208L98.7928 64.4292L98.8539 64.456Z" fill="white"/>
<path d="M74.5505 22.8248C74.5264 22.8248 74.4949 22.8248 74.4801 22.8097C73.881 22.1769 73.2825 21.5492 72.6846 20.9266L72.7346 20.8696C72.8532 20.9854 72.9736 21.0993 73.0904 21.217C73.498 21.6308 73.9075 22.0428 74.3078 22.4661C74.3975 22.5802 74.4763 22.7029 74.5431 22.8324L74.5505 22.8248Z" fill="white"/>
<path d="M70.1094 18.1548L71.273 19.3545C70.8061 19.0356 70.4948 18.5553 70.1094 18.1548Z" fill="white"/>
<path d="M86.6359 22.3331L86.499 21.6953L86.5601 21.6782L86.745 22.2971L86.6359 22.3331Z" fill="white"/>
<path d="M71.8527 20.0088L71.4043 19.5732C71.6674 19.6774 71.6674 19.6774 71.8527 20.0088Z" fill="white"/>
<path d="M77.5656 25.5679L77.7265 25.7858C77.6951 25.7992 77.6655 25.8183 77.6599 25.8126C77.6044 25.7495 77.5508 25.6826 77.499 25.6214L77.5656 25.5679Z" fill="white"/>
<path d="M85.1516 32.8409L85.1016 32.6713L85.1553 32.6484L85.2313 32.8162L85.1516 32.8409Z" fill="white"/>
<path d="M74.543 22.8324L74.8204 22.9821C74.5985 23.0397 74.58 22.9226 74.5485 22.8247L74.543 22.8324Z" fill="white"/>
<path d="M51.3884 34.0396L51.405 34.2542H51.3681L51.3516 34.0396H51.3884Z" fill="white"/>
<path d="M56.5541 44.0399C56.4912 43.6336 56.4227 43.2274 56.3691 42.8193C56.3314 42.595 56.3314 42.3658 56.3691 42.1416C56.4486 42.7016 56.5319 43.2616 56.6058 43.8216C56.6024 43.8979 56.5862 43.973 56.5578 44.0437L56.5541 44.0399Z" fill="white"/>
<path d="M53.2715 35.7349L53.4327 36.7409C53.2215 36.4315 53.3067 36.0671 53.2715 35.7349Z" fill="white"/>
<path d="M53.7525 38.888L53.6064 38.0015H53.6397L53.808 38.888H53.7525Z" fill="white"/>
<path d="M61.2956 58.7741L61.0645 58.1553C61.3012 58.2995 61.2605 58.5577 61.2956 58.7741Z" fill="white"/>
<path d="M55.2688 39.9036L55.165 38.8501C55.267 39.1956 55.3652 39.5411 55.2688 39.9055V39.9036Z" fill="white"/>
<path d="M53.262 32.5361L53.2859 32.8449H53.2325L53.2178 32.5361H53.262Z" fill="white"/>
<path d="M54.4903 41.6064V42.0022L54.3291 41.7617C54.355 41.684 54.3587 41.5723 54.4903 41.6064Z" fill="white"/>
<path d="M53.9736 33.8423L53.957 33.5024H54.0105V33.8423H53.9736Z" fill="white"/>
<path d="M53.5264 37.6193L53.4785 37.3391L53.5338 37.3296L53.5743 37.6003L53.5264 37.6193Z" fill="white"/>
<path d="M60.7278 56.9994L60.6426 56.8077L60.6852 56.7886L60.776 56.9802L60.7278 56.9994Z" fill="white"/>
<path d="M60.9921 57.6938L61.0566 57.857L61.0069 57.882L60.9424 57.7284L60.9921 57.6938Z" fill="white"/>
<path d="M57.7051 48.05L57.7345 47.8589L57.8101 47.8742L57.7714 48.0652L57.7051 48.05Z" fill="white"/>
<path d="M53.1804 35.1182L53.1914 35.3101H53.1509L53.1104 35.1182H53.1804Z" fill="white"/>
<path d="M52.9209 33.6862V33.4453H52.9559L52.9688 33.6862H52.9209Z" fill="white"/>
<path d="M53.9102 32.9431V32.6636H53.9374V32.9431H53.9102Z" fill="white"/>
<path d="M52.9952 34.2186L52.9805 34.0737H53.0192L53.0449 34.2224L52.9952 34.2186Z" fill="white"/>
<path d="M81.0283 67.3453C81.0283 67.3034 81.0412 67.2597 81.0504 67.2178C81.0602 67.2158 81.0702 67.2158 81.0799 67.2178C81.0799 67.2578 81.091 67.2958 81.0946 67.3358L81.0283 67.3453Z" fill="white"/>
</svg>
