<svg width="1440" height="281" viewBox="0 0 1440 281" fill="none" xmlns="http://www.w3.org/2000/svg">
<g clip-path="url(#clip0_27_147)">
<g filter="url(#filter0_d_27_147)">
<path d="M154.651 93.2049C162.197 93.2049 168.314 87.0879 168.314 79.5421C168.314 71.9964 162.197 65.8794 154.651 65.8794C147.105 65.8794 140.988 71.9964 140.988 79.5421C140.988 87.0879 147.105 93.2049 154.651 93.2049Z" stroke="#FFE600" stroke-width="6" stroke-linecap="round" stroke-linejoin="round"/>
<path d="M154.651 43.1084C144.988 43.1084 135.721 46.947 128.888 53.7797C122.055 60.6124 118.217 69.8795 118.217 79.5424C118.217 88.159 120.048 93.7972 125.048 100.036L154.651 134.193L184.253 100.036C189.254 93.7972 191.085 88.159 191.085 79.5424C191.085 69.8795 187.246 60.6124 180.413 53.7797C173.581 46.947 164.314 43.1084 154.651 43.1084V43.1084Z" stroke="#FFE600" stroke-width="6" stroke-linecap="round" stroke-linejoin="round"/>
</g>
</g>
<circle cx="156.149" cy="163.515" r="11.2297" fill="#FFE600"/>
<circle cx="156.148" cy="163.515" r="15.4715" stroke="#FFE600" stroke-width="0.5"/>
<path d="M-115 278.057C-37.2936 216.956 192.847 106.936 491.758 155.667C865.396 216.58 1031.17 249.856 1146.43 263.957C1261.7 278.057 1347.18 291.593 1472.15 263.957C1597.13 236.32 1660.59 135.926 1683.26 84.6015C1701.39 43.5416 1705.92 11.0922 1705.92 0" stroke="white"/>
<path d="M626.907 149.709C630.023 149.709 632.549 147.183 632.549 144.068C632.549 140.952 630.023 138.426 626.907 138.426C623.791 138.426 621.266 140.952 621.266 144.068C621.266 147.183 623.791 149.709 626.907 149.709Z" stroke="white" stroke-width="2" stroke-linecap="round" stroke-linejoin="round"/>
<path d="M626.907 129.024C622.917 129.024 619.091 130.609 616.27 133.43C613.448 136.251 611.863 140.078 611.863 144.068C611.863 147.626 612.619 149.954 614.684 152.53L626.907 166.634L639.13 152.53C641.195 149.954 641.951 147.626 641.951 144.068C641.951 140.078 640.366 136.251 637.545 133.43C634.723 130.609 630.897 129.024 626.907 129.024V129.024Z" stroke="white" stroke-width="2" stroke-linecap="round" stroke-linejoin="round"/>
<circle cx="627.368" cy="178.684" r="4.60526" fill="white"/>
<circle cx="627.368" cy="178.684" r="6.19737" stroke="white" stroke-width="0.5"/>
<path d="M1149.14 221.551C1153.79 221.551 1157.55 217.789 1157.55 213.147C1157.55 208.505 1153.79 204.742 1149.14 204.742C1144.5 204.742 1140.74 208.505 1140.74 213.147C1140.74 217.789 1144.5 221.551 1149.14 221.551Z" stroke="white" stroke-width="2" stroke-linecap="round" stroke-linejoin="round"/>
<path d="M1149.14 190.734C1143.2 190.734 1137.5 193.096 1133.3 197.299C1129.09 201.502 1126.73 207.203 1126.73 213.147C1126.73 218.447 1127.86 221.915 1130.93 225.754L1149.14 246.765L1167.35 225.754C1170.43 221.915 1171.56 218.447 1171.56 213.147C1171.56 207.203 1169.2 201.502 1164.99 197.299C1160.79 193.096 1155.09 190.734 1149.14 190.734V190.734Z" stroke="white" stroke-width="2" stroke-linecap="round" stroke-linejoin="round"/>
<circle cx="1150.07" cy="264.802" r="6.90789" fill="white"/>
<circle cx="1150.07" cy="264.802" r="9.42105" stroke="white" stroke-width="0.5"/>
<path d="M397.106 120.12C399.268 120.12 401.02 118.368 401.02 116.206C401.02 114.044 399.268 112.292 397.106 112.292C394.944 112.292 393.191 114.044 393.191 116.206C393.191 118.368 394.944 120.12 397.106 120.12Z" stroke="white" stroke-linecap="round" stroke-linejoin="round"/>
<path d="M397.106 105.768C394.337 105.768 391.682 106.867 389.724 108.825C387.767 110.783 386.667 113.438 386.667 116.206C386.667 118.675 387.192 120.29 388.624 122.078L397.106 131.864L405.587 122.078C407.02 120.29 407.544 118.675 407.544 116.206C407.544 113.438 406.444 110.783 404.487 108.825C402.529 106.867 399.874 105.768 397.106 105.768V105.768Z" stroke="white" stroke-linecap="round" stroke-linejoin="round"/>
<circle cx="396.645" cy="145.066" r="4.14474" fill="white"/>
<circle cx="396.645" cy="145.065" r="5.73684" stroke="white" stroke-width="0.5"/>
<path d="M886.185 199.331C888.347 199.331 890.099 197.579 890.099 195.417C890.099 193.255 888.347 191.502 886.185 191.502C884.023 191.502 882.271 193.255 882.271 195.417C882.271 197.579 884.023 199.331 886.185 199.331Z" stroke="white" stroke-linecap="round" stroke-linejoin="round"/>
<path d="M886.185 184.979C883.416 184.979 880.761 186.078 878.803 188.036C876.846 189.994 875.746 192.649 875.746 195.417C875.746 197.886 876.271 199.501 877.703 201.289L886.185 211.075L894.666 201.289C896.099 199.501 896.623 197.886 896.623 195.417C896.623 192.649 895.524 189.994 893.566 188.036C891.608 186.078 888.953 184.979 886.185 184.979V184.979Z" stroke="white" stroke-linecap="round" stroke-linejoin="round"/>
<circle cx="884.342" cy="221.974" r="3.68421" fill="white"/>
<circle cx="884.342" cy="221.974" r="5.27632" stroke="white" stroke-width="0.5"/>
<defs>
<filter id="filter0_d_27_147" x="111.217" y="40.1084" width="86.8682" height="109.085" filterUnits="userSpaceOnUse" color-interpolation-filters="sRGB">
<feFlood flood-opacity="0" result="BackgroundImageFix"/>
<feColorMatrix in="SourceAlpha" type="matrix" values="0 0 0 0 0 0 0 0 0 0 0 0 0 0 0 0 0 0 127 0" result="hardAlpha"/>
<feOffset dy="8"/>
<feGaussianBlur stdDeviation="2"/>
<feComposite in2="hardAlpha" operator="out"/>
<feColorMatrix type="matrix" values="0 0 0 0 0.245833 0 0 0 0 0.245833 0 0 0 0 0.245833 0 0 0 0.25 0"/>
<feBlend mode="normal" in2="BackgroundImageFix" result="effect1_dropShadow_27_147"/>
<feBlend mode="normal" in="SourceGraphic" in2="effect1_dropShadow_27_147" result="shape"/>
</filter>
<clipPath id="clip0_27_147">
<rect width="109.302" height="109.302" fill="white" transform="translate(100 34)"/>
</clipPath>
</defs>
</svg>
